<svg width="24" height="25" viewBox="0 0 24 25" fill="none" xmlns="http://www.w3.org/2000/svg">
<g id="Logos">
<path id="Vector" d="M1.96069 2.58604C1.96069 2.46538 2.06124 2.34473 2.20201 2.34473H3.97163C4.09229 2.34473 4.21294 2.44527 4.21294 2.58604V22.2329C4.21294 22.3536 4.1124 22.4742 3.97163 22.4742H2.20201C2.08135 22.4742 1.96069 22.3737 1.96069 22.2329V2.58604Z" fill="white"/>
<path id="Vector_2" d="M6.42529 2.58604C6.42529 2.46538 6.52584 2.34473 6.66661 2.34473H8.43623C8.55689 2.34473 8.67754 2.44527 8.67754 2.58604V22.2329C8.67754 22.3536 8.577 22.4742 8.43623 22.4742H6.66661C6.54595 22.4742 6.42529 22.3737 6.42529 22.2329V2.58604Z" fill="white"/>
<path id="Vector_3" d="M10.8892 2.58604C10.8892 2.46538 10.9897 2.34473 11.1305 2.34473H12.9001C13.0208 2.34473 13.1414 2.44527 13.1414 2.58604V22.2329C13.1414 22.3536 13.0409 22.4742 12.9001 22.4742H11.1305C11.0098 22.4742 10.8892 22.3737 10.8892 22.2329V2.58604Z" fill="white"/>
<path id="Vector_4" d="M15.3538 2.58604C15.3538 2.46538 15.4543 2.34473 15.5951 2.34473H17.3647C17.4854 2.34473 17.606 2.44527 17.606 2.58604V22.2329C17.606 22.3536 17.5055 22.4742 17.3647 22.4742H15.5951C15.4744 22.4742 15.3538 22.3737 15.3538 22.2329V2.58604Z" fill="white"/>
<path id="Vector_5" d="M19.8384 10.4083C19.8384 10.2876 19.9389 10.167 20.0797 10.167H21.8493C21.97 10.167 22.0906 10.2675 22.0906 10.4083V14.4101C22.0906 14.5307 21.9901 14.6514 21.8493 14.6514H20.0797C19.959 14.6514 19.8384 14.5508 19.8384 14.4101V10.4083Z" fill="white"/>
</g>
</svg>
