<svg width="16" height="16" viewBox="0 0 16 16" fill="none" xmlns="http://www.w3.org/2000/svg">
<g id="Frame" clip-path="url(#clip0_30_680)">
<path id="Vector" d="M9 2.5H7" stroke="#FAFF69" stroke-linecap="round" stroke-linejoin="round"/>
<path id="Vector_2" d="M7 13.5H9" stroke="#FAFF69" stroke-linecap="round" stroke-linejoin="round"/>
<path id="Vector_3" d="M11.5 2.5H13C13.1326 2.5 13.2598 2.55268 13.3536 2.64645C13.4473 2.74021 13.5 2.86739 13.5 3V4.5" stroke="#FAFF69" stroke-linecap="round" stroke-linejoin="round"/>
<path id="Vector_4" d="M13.5 9V7" stroke="#FAFF69" stroke-linecap="round" stroke-linejoin="round"/>
<path id="Vector_5" d="M11.5 13.5H13C13.1326 13.5 13.2598 13.4473 13.3536 13.3536C13.4473 13.2598 13.5 13.1326 13.5 13V11.5" stroke="#FAFF69" stroke-linecap="round" stroke-linejoin="round"/>
<path id="Vector_6" d="M2.5 7V9" stroke="#FAFF69" stroke-linecap="round" stroke-linejoin="round"/>
<path id="Vector_7" d="M4.5 13.5H3C2.86739 13.5 2.74021 13.4473 2.64645 13.3536C2.55268 13.2598 2.5 13.1326 2.5 13V11.5" stroke="#FAFF69" stroke-linecap="round" stroke-linejoin="round"/>
<path id="Vector_8" d="M4.5 2.5H3C2.86739 2.5 2.74021 2.55268 2.64645 2.64645C2.55268 2.74021 2.5 2.86739 2.5 3V4.5" stroke="#FAFF69" stroke-linecap="round" stroke-linejoin="round"/>
</g>
<defs>
<clipPath id="clip0_30_680">
<rect width="16" height="16" fill="white"/>
</clipPath>
</defs>
</svg>
