<svg width="24" height="25" viewBox="0 0 24 25" fill="none" xmlns="http://www.w3.org/2000/svg">
<g id="Postgres">
<g id="Group">
<g id="Vector">
<path d="M17.3396 17.4446C17.4821 16.2579 17.4394 16.0838 18.3234 16.276L18.5478 16.2957C19.2275 16.3266 20.1166 16.1864 20.639 15.9437C21.7635 15.422 22.4302 14.5508 21.3215 14.7797C18.7923 15.3015 18.6184 14.4451 18.6184 14.4451C21.2891 10.4825 22.4055 5.45231 21.4418 4.22103C18.8134 0.862543 14.2638 2.45075 14.1876 2.49198L14.1634 2.4965C13.6637 2.39277 13.1044 2.33082 12.4761 2.32066C11.3316 2.30185 10.4631 2.62071 9.80433 3.12039C9.80433 3.12039 1.68792 -0.223463 2.06551 7.32563C2.14582 8.93153 4.36741 19.4773 7.01708 16.292C7.98552 15.1272 8.92142 14.1424 8.92142 14.1424C9.38616 14.4511 9.94256 14.6086 10.5261 14.552L10.5712 14.5136C10.5571 14.6582 10.5633 14.7997 10.5893 14.9671C9.90681 15.7298 10.1073 15.8637 8.74266 16.1446C7.36198 16.4292 8.17313 16.9358 8.70258 17.0682C9.34462 17.2287 10.8299 17.4561 11.8337 16.0512L11.7938 16.2115C12.0615 16.4257 12.0434 17.7512 12.0814 18.6982C12.1194 19.6453 12.1828 20.5291 12.3759 21.0501C12.5689 21.571 12.7967 22.9131 14.5902 22.5288C16.0892 22.2075 17.2352 21.7452 17.3396 17.4446Z" fill="black"/>
<path d="M17.3396 17.4446C17.4821 16.2579 17.4394 16.0838 18.3234 16.276L18.5478 16.2957C19.2275 16.3266 20.1166 16.1864 20.639 15.9437C21.7635 15.422 22.4302 14.5508 21.3215 14.7797C18.7923 15.3015 18.6184 14.4451 18.6184 14.4451C21.2891 10.4825 22.4055 5.45231 21.4418 4.22103C18.8134 0.862543 14.2638 2.45075 14.1876 2.49198L14.1634 2.4965C13.6637 2.39277 13.1044 2.33082 12.4761 2.32066C11.3316 2.30185 10.4631 2.62071 9.80433 3.12039C9.80433 3.12039 1.68792 -0.223463 2.06551 7.32563C2.14582 8.93153 4.36741 19.4773 7.01708 16.292C7.98552 15.1272 8.92142 14.1424 8.92142 14.1424C9.38616 14.4511 9.94256 14.6086 10.5261 14.552L10.5712 14.5136C10.5571 14.6582 10.5633 14.7997 10.5893 14.9671C9.90681 15.7298 10.1073 15.8637 8.74266 16.1446C7.36198 16.4292 8.17313 16.9357 8.70258 17.0682C9.34462 17.2287 10.8299 17.4561 11.8337 16.0512L11.7938 16.2115C12.0615 16.4257 12.0434 17.7512 12.0814 18.6982C12.1194 19.6453 12.1828 20.5291 12.3759 21.0501C12.5689 21.571 12.7967 22.9131 14.5902 22.5288C16.0892 22.2075 17.2352 21.7452 17.3396 17.4446" stroke="black" stroke-width="1.75909"/>
</g>
<path id="Vector_2" d="M21.322 14.7797C18.7925 15.3015 18.6186 14.4451 18.6186 14.4451C21.2893 10.4822 22.4057 5.45196 21.4423 4.22083C18.8139 0.86254 14.264 2.45079 14.1881 2.49203L14.1636 2.4964C13.6639 2.39266 13.1046 2.33086 12.4761 2.32061C11.3315 2.30185 10.4634 2.62066 9.80457 3.12024C9.80457 3.12024 1.68802 -0.223465 2.06551 7.32558C2.14581 8.93158 4.36735 19.4773 7.01712 16.292C7.98561 15.1272 8.92137 14.1424 8.92137 14.1424C9.38615 14.4512 9.94255 14.6087 10.5259 14.5521L10.5712 14.5136C10.5571 14.6582 10.5635 14.7997 10.5893 14.9672C9.9067 15.7298 10.1073 15.8638 8.7427 16.1446C7.36193 16.4292 8.17307 16.9358 8.70268 17.0682C9.34472 17.2288 10.8301 17.4562 11.8337 16.0512L11.7937 16.2115C12.0612 16.4258 12.249 17.605 12.2175 18.674C12.186 19.743 12.165 20.4769 12.3757 21.0501C12.5865 21.6234 12.7965 22.9132 14.5904 22.5288C16.0893 22.2076 16.8661 21.3752 16.9742 19.9866C17.0508 18.9995 17.2244 19.1454 17.2353 18.2629L17.3745 17.8451C17.535 16.507 17.4 16.0752 18.3235 16.276L18.5479 16.2957C19.2276 16.3266 20.1172 16.1864 20.6393 15.9437C21.7636 15.422 22.4304 14.5508 21.3219 14.7797H21.322Z" fill="#336791"/>
<path id="Vector_3" d="M11.9422 15.5467C11.8726 18.0366 11.9597 20.5439 12.2034 21.1532C12.4471 21.7626 12.9688 22.9478 14.7629 22.5635C16.2617 22.2421 16.807 21.6203 17.0436 20.2478C17.2179 19.238 17.5539 16.4335 17.597 15.8589M9.79193 3.06454C9.79193 3.06454 1.66985 -0.255077 2.04744 7.29401C2.12774 8.89997 4.34944 19.446 6.99915 16.2606C7.96744 15.0957 8.84316 14.1821 8.84316 14.1821M14.1791 2.45866C13.8979 2.54681 18.6971 0.704261 21.4245 4.18932C22.3879 5.42049 21.2715 10.4508 18.6008 14.4138" stroke="white" stroke-width="0.586364" stroke-linecap="round" stroke-linejoin="round"/>
<path id="Vector_4" d="M18.6009 14.4136C18.6009 14.4136 18.775 15.2703 21.3044 14.7481C22.4127 14.5192 21.7457 15.3905 20.6217 15.9125C19.6992 16.3406 17.6311 16.4503 17.5973 15.8587C17.5103 14.3323 18.6858 14.7961 18.601 14.4136C18.5243 14.0691 17.9986 13.7311 17.6509 12.888C17.3473 12.1522 13.4875 6.50944 18.7213 7.34749C18.913 7.30782 17.3563 2.36918 12.4581 2.28887C7.56114 2.20857 7.7218 8.31111 7.7218 8.31111" stroke="white" stroke-width="0.586364" stroke-linecap="round" stroke-linejoin="bevel"/>
<path id="Vector_5" d="M10.5715 14.9354C9.88874 15.698 10.0895 15.832 8.72484 16.1129C7.34406 16.3975 8.15531 16.904 8.68476 17.0364C9.3268 17.197 10.8122 17.4245 11.8158 16.0192C12.1214 15.5913 11.814 14.9086 11.3942 14.7345C11.1913 14.6506 10.9201 14.5452 10.5715 14.9354V14.9354Z" stroke="white" stroke-width="0.586364" stroke-linecap="round" stroke-linejoin="round"/>
<path id="Vector_6" d="M10.5263 14.9227C10.4575 14.4743 10.6737 13.9407 10.9053 13.3165C11.2533 12.3798 12.0564 11.4431 11.414 8.47205C10.9351 6.25805 7.72329 8.01129 7.72128 8.31149C7.71932 8.61159 7.86655 9.83311 7.66762 11.2556C7.40805 13.1117 8.84872 14.6816 10.5077 14.521" stroke="white" stroke-width="0.586364" stroke-linecap="round" stroke-linejoin="round"/>
<path id="Vector_7" d="M9.76245 8.26635C9.74797 8.36893 9.95016 8.64248 10.2138 8.67904C10.477 8.71575 10.7023 8.50194 10.7166 8.39951C10.7308 8.29698 10.5289 8.18403 10.2652 8.14733C10.0018 8.11062 9.77643 8.16407 9.7625 8.26635H9.76245Z" fill="white" stroke="white" stroke-width="0.195455"/>
<path id="Vector_8" d="M17.7794 8.44506C17.7936 8.54764 17.5917 8.82119 17.328 8.85775C17.0646 8.89446 16.8393 8.68065 16.8249 8.57822C16.811 8.47569 17.013 8.36275 17.2764 8.32604C17.5399 8.28933 17.7651 8.34278 17.7794 8.44511V8.44506Z" fill="white" stroke="white" stroke-width="0.0977509"/>
<path id="Vector_9" d="M18.7213 7.34766C18.7647 8.15192 18.5481 8.69972 18.5208 9.55587C18.4803 10.8003 19.1141 12.2247 18.1592 13.6508" stroke="white" stroke-width="0.586364" stroke-linecap="round" stroke-linejoin="round"/>
</g>
</g>
</svg>
