<svg width="24" height="24" viewBox="0 0 24 24" fill="none" xmlns="http://www.w3.org/2000/svg">
<path id="Union" fill-rule="evenodd" clip-rule="evenodd" d="M0 0.287712C0 0.143856 0.126051 0 0.302521 0H0.705882H2.52101H5.62567H7.84139H10.946H13.1645H16.2692H17.6471H18.4849C18.636 0 18.7871 0.11988 18.7871 0.287712V23.7123C18.7871 23.8561 18.6612 24 18.4849 24H17.6471H16.2692H13.1645H10.946H7.84139H5.62567H2.52101H0.705882H0.302521C0.151261 24 0 23.8801 0 23.7123V0.287712ZM2.82353 21.1765H5.32353V16.9412H2.82353V21.1765ZM8.14353 21.1765H10.6435V16.9412H8.14353V21.1765ZM13.4671 21.1765H15.9671V16.9412H13.4671V21.1765ZM15.9671 9.88235V14.1176H13.4671V9.88235H15.9671ZM10.6435 9.88235V14.1176H8.14353V9.88235H10.6435ZM5.32353 9.88235V14.1176H2.82353V9.88235H5.32353ZM2.82353 7.05882H5.32353V2.82353H2.82353V7.05882ZM8.14353 7.05882H10.6435V2.82353H8.14353V7.05882ZM13.4671 7.05882H15.9671V2.82353H13.4671V7.05882ZM21.479 9.17647C21.3025 9.17647 21.1765 9.32841 21.1765 9.48035V14.5197C21.1765 14.6969 21.3277 14.8235 21.479 14.8235H23.6975C23.8739 14.8235 24 14.6716 24 14.5197V9.48035C24 9.30309 23.8487 9.17647 23.6975 9.17647H21.479Z" fill="white"/>
</svg>
